<?xml version="1.0" encoding="UTF-8"?>
<svg width="143px" height="28px" viewBox="0 0 143 28" version="1.1" xmlns="http://www.w3.org/2000/svg" xmlns:xlink="http://www.w3.org/1999/xlink">
    <!-- Generator: Sketch 49 (51002) - http://www.bohemiancoding.com/sketch -->
    <title>thisdot-media-logo</title>
    <desc>Created with Sketch.</desc>
    <defs></defs>
    <g id="Home-Page" stroke="none" stroke-width="1" fill="none" fill-rule="evenodd">
        <g transform="translate(-120.000000, -173.000000)" fill-rule="nonzero" id="Hero-Section">
            <g transform="translate(0.000000, 87.000000)">
                <g id="Hero-Content" transform="translate(120.000000, 86.000000)">
                    <g id="right">
                        <g id="thisdot-media-logo">
                            <ellipse id="Oval" fill="#F46663" cx="25.8025137" cy="13.6111111" rx="8.50967213" ry="8.47"></ellipse>
                            <polygon id="Shape" fill="#9FACCC" points="131.903825 0 124.902295 0 135.40459 13.6111111 124.902295 27.23 131.903825 27.23 142.40612 13.6111111"></polygon>
                            <polygon id="Shape" fill="#9FACCC" points="10.5022951 0 17.5116393 0 7.00153005 13.6111111 17.5116393 27.23 10.5022951 27.23 0 13.6111111"></polygon>
                            <path d="M62.3964481,22.1822222 L57.7782514,22.1822222 L57.7782514,13.7122222 C57.8422548,12.9506726 57.6557584,12.1890561 57.2468852,11.5422222 C56.903372,11.1084014 56.3713295,10.8653237 55.8168852,10.8888889 C55.1397772,10.9192783 54.4974435,11.1960485 54.0118033,11.6666667 C53.4166049,12.178731 52.9734416,12.8430665 52.7302732,13.5877778 L52.7302732,22.1822222 L48.1042623,22.1822222 L48.1042623,13.7122222 C48.1682658,12.9506726 47.9817693,12.1890561 47.5728962,11.5422222 C47.2293829,11.1084014 46.6973405,10.8653237 46.1428962,10.8888889 C45.4726111,10.9093709 44.8320197,11.1688292 44.3378142,11.62 C43.7395005,12.1261409 43.2955588,12.7889489 43.0562842,13.5333333 L43.0562842,22.1822222 L38.4380874,22.1822222 L38.4380874,7.10111111 L42.5952459,7.10111111 L42.5952459,9.62888889 C43.1358503,8.72403635 43.9284256,7.99459228 44.8769945,7.52888889 C45.9227404,7.0324551 47.0709875,6.78735896 48.2292896,6.81333333 C48.7877049,6.80577541 49.3439182,6.88448919 49.8780874,7.04666667 C50.3221992,7.18046495 50.7379825,7.39397731 51.104918,7.67666667 C51.4349882,7.93811772 51.7177618,8.25376852 51.9410383,8.61 C52.1604393,8.96044208 52.3214094,9.34391875 52.4177049,9.74555556 C52.9522826,8.82935275 53.7311999,8.07829452 54.6681967,7.57555556 C55.6635005,7.04915178 56.7763054,6.78161144 57.9032787,6.79777778 C58.7186645,6.75650372 59.5297262,6.9394873 60.247541,7.32666667 C60.8126718,7.6634841 61.2830759,8.13704615 61.6150273,8.70333333 C61.9440679,9.27527671 62.1639613,9.90287484 62.2636066,10.5544444 C62.3664143,11.200175 62.4186662,11.8528795 62.4198907,12.5066667 L62.3964481,22.1822222 Z" id="Shape" fill="#626D8E"></path>
                            <path d="M72.6721311,22.47 C71.5018775,22.4897776 70.3390783,22.2810267 69.2495082,21.8555556 C68.2865212,21.4757111 67.4116691,20.9040178 66.6786339,20.1755556 C65.9807789,19.4744659 65.4354796,18.6378255 65.0767213,17.7177778 C64.711369,16.7885487 64.5257796,15.7989547 64.5297268,14.8011111 C64.5197252,13.7395339 64.7051142,12.6851071 65.0767213,11.69 C65.4211772,10.7465493 65.952651,9.88164066 66.6395628,9.14666667 C67.3601229,8.39899268 68.2307506,7.81067992 69.1948087,7.42 C70.3013029,6.98768138 71.4838752,6.78136539 72.6721311,6.81333333 C73.8491197,6.79103814 75.0185308,7.00531247 76.1103825,7.44333333 C77.0656359,7.83473042 77.930011,8.41711808 78.65,9.15444444 C79.3358297,9.86945975 79.8676529,10.7164099 80.2128415,11.6433333 C80.5686945,12.5882595 80.7487519,13.5897713 80.7442077,14.5988889 C80.7442077,14.8685185 80.7442077,15.1277778 80.7442077,15.3766667 C80.7292803,15.6037401 80.7005759,15.8297078 80.6582514,16.0533333 L69.4370492,16.0533333 C69.4499669,16.9543554 69.8547481,17.80554 70.5466667,18.3866667 C71.1878557,18.9009279 71.9894185,19.1760403 72.8127869,19.1644444 C73.495188,19.1609368 74.1661867,18.9899619 74.7663388,18.6666667 C75.337996,18.3993043 75.7872726,17.9271245 76.0244262,17.3444444 L79.9315301,18.4333333 C79.3104539,19.648644 78.3463035,20.6569581 77.1574863,21.3344444 C75.7947936,22.1140134 74.2434366,22.5067698 72.6721311,22.47 Z M75.8759563,13.2222222 C75.8253264,12.3628877 75.454789,11.5531696 74.8366667,10.9511111 C74.2367176,10.3914776 73.4393841,10.0896798 72.6174317,10.1111111 C71.7890185,10.0876324 70.9851474,10.3925746 70.3825683,10.9588889 C69.7733507,11.5631689 69.4065896,12.3679409 69.3510929,13.2222222 L75.8759563,13.2222222 Z" id="Shape" fill="#626D8E"></path>
                            <path d="M89.1522951,22.47 C88.1622923,22.4801169 87.1816478,22.2785366 86.2766667,21.8788889 C85.4122631,21.4956005 84.6397618,20.9335082 84.0105464,20.23 C83.3635412,19.500147 82.8599218,18.6559003 82.525847,17.7411111 C82.1625887,16.7442153 81.9825963,15.6903728 81.9944809,14.63 C81.9831717,13.5728974 82.1495653,12.5213555 82.486776,11.5188889 C82.7851058,10.60948 83.2544837,9.76484323 83.8698907,9.03 C84.448932,8.35854534 85.158681,7.81085578 85.9562842,7.42 C86.7953514,7.01202716 87.7183998,6.80431087 88.6521858,6.81333333 C89.65834,6.81265493 90.6461645,7.08129407 91.5121858,7.59111111 C92.352723,8.06373258 93.0431126,8.76168269 93.5048087,9.60555556 L93.5048087,1.21333333 L98.1230055,1.21333333 L98.1230055,17.01 C98.0862635,17.3521536 98.1781271,17.6957287 98.3808743,17.9744444 C98.6397234,18.1884879 98.9664426,18.3042356 99.3029508,18.3011111 L99.3029508,22.19 C98.8874983,22.2759979 98.4674527,22.3383215 98.0448634,22.3766667 C97.6906193,22.4077778 97.3676321,22.4233333 97.0759016,22.4233333 C95.4609654,22.387037 94.5362842,21.7440741 94.3018579,20.4944444 L94.2159016,19.7166667 C93.7029584,20.6129467 92.9403422,21.3422935 92.0201093,21.8166667 C91.1290937,22.2558939 90.1465512,22.4797325 89.1522951,22.47 Z M90.3947541,18.5811111 C91.0439456,18.5777891 91.6775644,18.3829056 92.2154645,18.0211111 C92.8028769,17.6358784 93.2731021,17.0979095 93.5751366,16.4655556 L93.5751366,13.3388889 C93.308824,12.5945961 92.8343685,11.9415507 92.2076503,11.4566667 C91.6393076,10.9961183 90.9321581,10.7386779 90.1993989,10.7255556 C89.7233589,10.7194611 89.2533205,10.8317443 88.8319126,11.0522222 C88.4164837,11.2730022 88.0476996,11.5714074 87.7457377,11.9311111 C87.4336283,12.3061471 87.1950664,12.7361949 87.042459,13.1988889 C86.8737996,13.7000139 86.7918877,14.2260138 86.8002186,14.7544444 C86.7610908,15.777531 87.1224834,16.77579 87.8082514,17.5388889 C88.4786255,18.2436278 89.420236,18.6287094 90.3947541,18.5966667 L90.3947541,18.5811111 Z" id="Shape" fill="#626D8E"></path>
                            <path d="M101.889454,5.37444444 L101.889454,1.21333333 L106.50765,1.21333333 L106.50765,5.37444444 L101.889454,5.37444444 Z M101.889454,22.1822222 L101.889454,7.10111111 L106.50765,7.10111111 L106.50765,22.1822222 L101.889454,22.1822222 Z" id="Shape" fill="#626D8E"></path>
                            <path d="M113.95459,22.47 C113.240602,22.4768496 112.53121,22.355656 111.860383,22.1122222 C111.238115,21.8939711 110.666636,21.5526821 110.180328,21.1088889 C109.715532,20.667797 109.343638,20.1389958 109.086339,19.5533333 C108.812204,18.9527222 108.67351,18.2996535 108.68,17.64 C108.671431,16.932416 108.834972,16.2332712 109.156667,15.6022222 C109.4832,14.9908852 109.942309,14.4595266 110.50071,14.0466667 C111.117477,13.5859035 111.810316,13.2358349 112.548033,13.0122222 C113.398794,12.7544228 114.284354,12.628504 115.173607,12.6388889 C115.791708,12.6370648 116.408782,12.6891155 117.01776,12.7944444 C117.557761,12.8819686 118.083442,13.0415539 118.580601,13.2688889 L118.580601,12.5766667 C118.580601,10.8344444 117.569964,9.96333333 115.548689,9.96333333 C114.74842,9.96377634 113.95462,10.1059943 113.204426,10.3833333 C112.376554,10.7081835 111.58977,11.1284557 110.860164,11.6355556 L109.500492,8.76555556 C110.466967,8.13222458 111.519532,7.6398254 112.626175,7.30333333 C113.7416,6.97163086 114.900301,6.80649939 116.064426,6.81333333 C118.356594,6.81333333 120.127814,7.35 121.378087,8.42333333 C122.686513,9.63176333 123.375853,11.3642325 123.253497,13.1366667 L123.253497,17.0255556 C123.216755,17.3677092 123.308619,17.7112843 123.511366,17.99 C123.770215,18.2040434 124.096934,18.3197912 124.433443,18.3166667 L124.433443,22.2055556 C124.029228,22.2954121 123.619337,22.3577784 123.206612,22.3922222 C122.83153,22.4233333 122.500729,22.4388889 122.214208,22.4388889 C121.533429,22.4665114 120.860299,22.2874852 120.284098,21.9255556 C119.831607,21.5827835 119.531571,21.0776112 119.447978,20.5177778 L119.362022,19.8255556 C118.705213,20.6548192 117.865721,21.3227501 116.908361,21.7777778 C115.99131,22.2341734 114.979886,22.4712027 113.95459,22.47 Z M115.314262,19.1644444 C115.812799,19.1659668 116.307619,19.0790527 116.775519,18.9077778 C117.209175,18.7581666 117.607898,18.5226934 117.94765,18.2155556 C118.328989,17.9769665 118.575103,17.573492 118.611858,17.1266667 L118.611858,15.6877778 C118.186059,15.5291694 117.746655,15.4094173 117.299071,15.33 C116.866384,15.2465635 116.426993,15.2023086 115.986284,15.1977778 C115.245041,15.1679692 114.512932,15.3691761 113.892077,15.7733333 C113.377416,16.0962848 113.067076,16.661118 113.071585,17.2666667 C113.059728,17.793386 113.29342,18.2959214 113.704536,18.6277778 C114.156452,18.9922975 114.725061,19.1827905 115.306448,19.1644444 L115.314262,19.1644444 Z" id="Shape" fill="#626D8E"></path>
                        </g>
                    </g>
                </g>
            </g>
        </g>
    </g>
</svg>